<svg width="200" height="200" xmlns="http://www.w3.org/2000/svg">

 <g>
  <path stroke="null" d="m-33.26749,43.51236c0,-41.72056 35.05929,-76.77985 76.77985,-76.77985l112.9753,0c41.72056,0 76.77985,35.05929 76.77985,76.77985l0,112.9753c0,41.72056 -35.05929,76.77985 -76.77985,76.77985l-112.9753,0c-41.72056,0 -76.77985,-35.05929 -76.77985,-76.77985l0,-112.9753z" opacity="undefined" fill="#ffb3c7"/>
  <path stroke="null" d="m48.43824,158.79294l26.73678,0l0,-117.58985l-26.73678,0l0,117.58985zm93.51624,-117.58985c0,25.45704 -9.83156,49.13864 -27.35037,66.74111l36.95766,50.85301l-33.02328,0l-40.16483,-55.26605l10.3659,-7.83355c17.19057,-12.99398 27.05068,-32.85567 27.05068,-54.4948l26.16438,0l-0.00014,0.00028z"/>
 </g>
</svg>
